<svg width="1920" height="4" viewBox="0 0 1920 4" fill="none" xmlns="http://www.w3.org/2000/svg">
<g clip-path="url(#clip0_417_2)">
<rect width="1920" height="4" fill="white"/>
<rect width="106.66" height="20" transform="translate(0 -8)" fill="#E9148C"/>
<rect width="106.66" height="20" transform="translate(106.66 -8)" fill="#00AEEC"/>
<rect width="106.66" height="20" transform="translate(213.32 -8)" fill="#939599"/>
<rect width="106.66" height="20" transform="translate(319.98 -8)" fill="#0B509F"/>
<rect width="106.66" height="20" transform="translate(426.64 -8)" fill="#241F21"/>
<rect width="106.66" height="20" transform="translate(533.3 -8)" fill="#CFC8B8"/>
<rect width="106.66" height="20" transform="translate(639.96 -8)" fill="#A7CD45"/>
<rect width="106.66" height="20" transform="translate(746.62 -8)" fill="#FFF02B"/>
<rect width="106.66" height="20" transform="translate(853.28 -8)" fill="#902C8D"/>
<rect width="106.66" height="20" transform="translate(959.94 -8)" fill="#E9148C"/>
<rect width="106.66" height="20" transform="translate(1066.6 -8)" fill="#00AEEC"/>
<rect width="106.66" height="20" transform="translate(1173.26 -8)" fill="#939599"/>
<rect width="106.66" height="20" transform="translate(1279.92 -8)" fill="#0B509F"/>
<rect width="106.66" height="20" transform="translate(1386.58 -8)" fill="#241F21"/>
<rect width="106.66" height="20" transform="translate(1493.24 -8)" fill="#CFC8B8"/>
<rect width="106.66" height="20" transform="translate(1599.9 -8)" fill="#A7CD45"/>
<rect width="106.66" height="20" transform="translate(1706.56 -8)" fill="#FFF02B"/>
<rect width="106.66" height="20" transform="translate(1813.22 -8)" fill="#902C8D"/>
</g>
<defs>
<clipPath id="clip0_417_2">
<rect width="1920" height="4" fill="white"/>
</clipPath>
</defs>
</svg>
